<?xml version="1.0" encoding="utf-8"?>
<!-- Generator: Adobe Illustrator 23.0.6, SVG Export Plug-In . SVG Version: 6.00 Build 0)  -->
<svg version="1.1" id="Layer_1" xmlns="http://www.w3.org/2000/svg" x="0px"
     y="0px"
     viewBox="0 0 30 44" style="enable-background:new 0 0 30 44;" xml:space="preserve">
<style type="text/css">
	.st0 {
    fill: #0040FF;
  }
</style>
  <g>
	<path class="st0" d="M4.6,44H2.3H0v-9.2v-9.2C0,23,1,20.7,2.7,19s4-2.7,6.5-2.7h2.3h2.3h8.1H30v2.3v2.3c0,2.5-1,4.9-2.7,6.5
		s-4,2.7-6.5,2.7h-3.5h-3.5v2.3v2.3c0,2.5-1,4.9-2.7,6.5S7.2,44,4.6,44z"/>
    <path class="st0" d="M0,4.6V2.3V0h10.4h10.4c2.5,0,4.9,1,6.5,2.7s2.7,4,2.7,6.5v2.3v2.3H19.6H9.2c-2.5,0-4.9-1-6.5-2.7S0,7.2,0,4.6
		z"/>
</g>
</svg>
